<svg xmlns="http://www.w3.org/2000/svg" viewBox="0 0 64 64" role="img" aria-label="flowfund.ai">
  <rect width="64" height="64" rx="12" fill="#0B1F33"/>
  <path fill="#2BA8A0" opacity="0.4"
    d="M8 18 C18 18 22 12 30 12 S40 20 46 16 L52 22 C44 28 36 16 30 16 S20 24 8 24 Z"/>
  <path fill="#2BA8A0" opacity="0.7"
    d="M8 30 C20 30 24 22 34 22 S46 34 54 28 L58 36 C48 44 40 26 34 26 S22 38 8 38 Z"/>
  <path fill="#2BA8A0"
    d="M8 44 C22 44 26 34 38 34 S52 48 58 42 L62 52 C50 60 42 38 38 38 S24 52 8 52 Z"/>
</svg>
